<?xml version="1.0" encoding="UTF-8" ?>
<!DOCTYPE svg PUBLIC "-//W3C//DTD SVG 1.1//EN" "http://www.w3.org/Graphics/SVG/1.1/DTD/svg11.dtd">
<svg width="753pt" height="720pt" viewBox="0 0 753 720" version="1.1" xmlns="http://www.w3.org/2000/svg">
<g id="#fefefeff">
<path fill="#fefefe" opacity="1.00" d=" M 252.95 89.94 C 269.10 82.18 287.98 85.05 304.32 90.66 C 316.44 95.39 330.04 103.43 333.27 116.88 C 331.72 128.55 317.87 132.41 307.80 132.93 C 306.38 133.08 303.53 133.37 302.11 133.52 C 300.39 133.99 298.60 133.99 296.89 133.53 C 295.47 133.38 292.62 133.08 291.20 132.93 C 277.78 132.59 264.11 127.71 253.21 119.87 C 250.18 115.20 246.21 111.07 244.07 105.87 C 242.58 98.98 246.63 92.50 252.95 89.94 Z" />
<path fill="#fefefe" opacity="1.00" d=" M 412.19 172.22 C 425.01 166.32 439.66 168.00 452.99 171.08 C 469.30 175.24 485.70 184.23 492.76 200.28 C 493.61 212.14 479.30 219.00 468.83 218.99 C 467.52 218.78 466.19 218.93 465.03 219.55 C 461.47 220.19 457.54 220.42 453.99 219.54 C 452.80 218.94 451.46 218.80 450.17 218.99 C 437.18 218.15 423.76 213.48 413.34 205.77 C 409.09 199.55 401.30 194.35 401.99 186.00 C 400.63 179.21 407.28 174.98 412.19 172.22 Z" />
<path fill="#fefefe" opacity="1.00" d=" M 582.96 266.94 C 599.31 258.97 618.28 263.40 634.38 269.54 C 647.97 274.33 659.53 284.22 665.75 297.28 C 667.19 300.97 665.85 305.66 662.50 307.80 C 660.73 308.40 659.40 309.73 658.80 311.50 C 653.77 316.92 644.94 317.82 638.01 318.02 C 634.94 317.97 631.99 317.98 628.98 318.01 C 613.57 317.56 597.51 312.36 585.39 302.75 C 581.75 297.38 576.24 293.28 573.97 287.03 C 570.22 279.32 575.54 270.09 582.96 266.94 Z" />
<path fill="#fefefe" opacity="1.00" d=" M 168.10 340.06 C 175.76 327.56 190.50 316.16 205.92 320.06 C 217.33 322.74 223.26 333.95 228.76 343.26 C 229.33 345.80 230.01 348.35 230.01 350.98 C 230.00 355.32 229.99 359.67 230.01 364.03 C 229.87 377.08 223.66 390.91 215.03 399.97 C 212.25 400.26 211.07 402.86 209.90 405.02 C 204.48 409.82 197.29 414.15 189.78 414.07 C 187.93 413.94 186.07 413.94 184.22 414.07 C 178.73 414.33 172.87 411.78 169.13 407.97 C 154.97 388.04 154.69 360.42 168.10 340.06 Z" />
<path fill="#fefefe" opacity="1.00" d=" M 340.61 365.58 C 356.99 353.11 379.16 345.46 399.40 352.52 C 407.74 355.09 412.97 362.56 417.59 369.47 L 418.01 370.17 C 418.00 374.44 418.00 378.74 418.03 383.03 C 417.13 391.17 412.35 398.96 406.96 404.92 C 402.81 407.36 399.03 410.63 396.91 415.03 C 385.49 424.48 371.12 431.60 356.01 432.03 C 352.31 431.98 348.66 432.01 344.97 432.00 C 338.11 431.77 329.95 430.07 325.19 424.97 C 323.59 418.98 318.24 414.40 317.94 408.01 C 316.52 390.86 327.58 375.53 340.61 365.58 Z" />
<path fill="#fefefe" opacity="1.00" d=" M 615.60 379.56 C 628.53 371.19 644.32 364.22 660.02 367.97 C 668.27 370.45 676.45 378.63 674.10 388.01 C 673.16 396.59 667.81 405.19 662.08 411.10 C 657.44 412.74 654.41 416.96 651.90 420.96 C 640.49 431.24 625.40 438.46 609.99 439.40 C 608.74 439.40 606.25 439.42 605.00 439.42 C 600.71 440.43 595.74 438.54 592.37 435.80 C 590.33 430.28 585.45 425.46 587.04 419.11 C 589.65 402.22 602.31 389.22 615.60 379.56 Z" />
<path fill="#fefefe" opacity="1.00" d=" M 462.40 468.45 C 474.90 465.60 488.20 470.42 494.70 481.52 L 495.06 482.28 C 494.96 484.11 494.95 485.95 495.08 487.79 C 494.64 494.51 490.85 503.43 485.73 507.02 C 484.14 506.87 482.99 508.17 482.95 509.69 C 482.65 511.28 481.23 512.62 479.68 512.99 C 477.69 513.17 476.23 514.70 475.96 516.64 C 465.94 525.90 451.95 531.92 438.27 533.64 C 433.76 533.26 429.24 532.89 424.76 533.43 C 420.78 532.90 415.86 531.93 413.16 528.99 C 410.01 522.00 406.69 514.73 409.83 506.86 C 418.31 485.58 440.43 472.16 462.40 468.45 Z" />
<path fill="#fefefe" opacity="1.00" d=" M 479.06 601.00 C 490.37 579.51 516.37 565.53 540.60 568.40 C 546.02 569.20 549.40 573.49 552.68 577.42 C 553.75 583.91 549.63 591.72 545.06 596.10 C 541.23 597.27 538.65 600.60 536.90 604.03 C 526.83 612.63 514.20 618.67 500.98 620.50 C 499.75 619.65 498.14 619.61 496.98 620.58 C 495.10 621.25 492.89 621.25 491.02 620.58 C 489.85 619.61 488.23 619.65 487.02 620.51 C 484.62 620.44 482.10 619.42 480.27 617.85 C 478.16 612.42 475.47 606.53 479.06 601.00 Z" />
<path fill="#fefefe" opacity="1.00" d=" M 267.03 580.07 C 281.90 573.72 300.11 570.40 314.73 579.28 C 318.65 583.64 323.98 588.30 322.09 595.02 C 321.79 600.40 318.27 604.91 314.89 608.83 C 312.85 610.82 310.81 612.82 308.81 614.86 C 297.71 624.92 283.09 631.02 268.27 632.63 C 263.77 632.29 259.24 631.82 254.76 632.47 C 250.39 631.42 244.52 631.50 241.33 627.76 C 237.91 621.96 233.78 615.82 236.60 608.64 C 241.66 595.21 254.02 585.37 267.03 580.07 Z" />
</g>
<g id="#005c78ff">
<path fill="#005c78" opacity="1.00" d=" M 181.84 69.94 C 185.44 63.57 184.21 51.80 189.96 47.93 C 226.55 120.84 263.77 193.43 300.98 266.01 C 308.78 279.69 314.46 294.72 323.35 307.70 C 456.52 318.52 589.69 329.46 722.87 340.22 C 726.68 340.80 731.01 340.23 734.36 342.53 C 673.53 441.38 611.86 539.83 550.35 638.33 C 548.07 640.38 547.19 646.94 543.03 644.57 C 541.83 643.63 540.19 643.63 538.99 644.56 C 537.33 645.19 535.50 645.02 533.77 645.09 C 532.08 645.07 528.69 645.01 527.00 644.98 C 525.32 644.81 523.62 644.91 522.04 645.52 C 520.33 646.04 518.53 646.08 516.77 646.10 C 515.08 646.07 511.69 646.01 510.00 645.98 C 508.32 645.81 506.62 645.91 505.04 646.52 C 503.41 647.01 501.69 647.01 500.01 647.04 C 497.28 647.00 494.56 646.98 491.86 646.97 C 490.55 646.79 489.23 646.99 488.04 647.54 C 486.41 648.08 484.66 647.93 482.98 648.02 C 479.84 648.00 476.76 648.02 473.69 648.56 C 470.69 648.88 467.76 649.09 464.77 649.08 C 463.08 649.06 459.69 649.01 458.00 648.98 C 456.32 648.81 454.62 648.91 453.04 649.52 C 451.01 650.12 448.87 650.10 446.78 650.09 C 444.86 649.96 442.94 649.94 441.02 650.00 C 439.34 649.83 437.63 649.91 436.04 650.52 C 434.71 650.84 433.36 651.01 431.99 651.00 C 428.85 651.02 425.76 651.04 422.69 651.56 C 419.76 651.87 416.90 651.96 413.99 652.01 C 410.85 651.99 407.76 652.01 404.69 652.56 C 401.69 652.89 398.75 653.09 395.77 653.08 C 394.08 653.06 390.69 653.01 389.00 652.98 C 387.32 652.81 385.62 652.91 384.04 653.52 C 382.01 654.12 379.87 654.11 377.78 654.10 C 375.86 653.96 373.95 653.89 372.05 653.96 C 370.56 654.09 367.60 654.37 366.11 654.51 C 365.34 654.61 363.79 654.82 363.01 654.93 C 359.87 655.01 356.77 655.07 353.69 655.57 C 350.77 655.86 347.90 655.97 344.99 656.01 C 341.85 655.99 338.76 656.01 335.69 656.56 C 332.70 656.89 329.75 657.09 326.77 657.08 C 325.08 657.06 321.69 657.01 320.00 656.98 C 318.32 656.81 316.62 656.90 315.04 657.52 C 313.02 658.16 310.87 658.00 308.80 657.95 C 307.37 658.09 304.53 658.35 303.11 658.48 C 300.06 658.79 297.05 659.03 294.00 659.04 C 290.93 658.95 287.91 659.01 284.86 658.97 C 283.55 658.79 282.23 658.99 281.04 659.54 C 279.41 660.08 277.66 659.93 275.98 660.02 C 272.85 660.00 269.76 660.02 266.69 660.56 C 263.71 660.88 260.75 661.09 257.77 661.08 C 256.08 661.06 252.69 661.01 251.00 660.98 C 249.32 660.81 247.62 660.91 246.04 661.52 C 244.01 662.12 241.87 662.10 239.78 662.09 C 237.86 661.96 235.94 661.94 234.02 662.00 C 232.34 661.83 230.63 661.91 229.04 662.52 C 227.41 663.01 225.69 663.02 224.01 663.04 C 221.29 663.00 218.57 662.98 215.86 662.97 C 214.55 662.79 213.23 662.99 212.04 663.54 C 210.41 664.08 208.66 663.93 206.98 664.02 C 203.86 664.00 200.75 664.02 197.69 664.57 C 195.06 664.88 192.42 665.05 189.78 665.08 C 188.08 665.06 184.67 665.04 182.97 665.03 C 181.40 664.95 179.84 664.95 178.27 665.03 L 177.36 664.95 C 148.68 569.85 120.27 474.66 91.44 379.60 C 90.32 374.83 92.57 370.39 93.84 365.94 C 123.20 267.28 152.47 168.60 181.84 69.94 M 176.32 322.32 C 162.55 333.72 155.35 351.46 154.01 368.99 C 153.95 383.01 157.12 399.21 169.13 407.97 C 172.87 411.78 178.73 414.33 184.22 414.07 C 184.71 415.86 189.28 415.86 189.78 414.07 C 197.29 414.15 204.48 409.82 209.90 405.02 C 212.54 404.75 213.44 401.73 215.03 399.97 C 223.66 390.91 229.87 377.08 230.01 364.03 C 232.45 362.04 231.38 352.65 230.01 350.98 C 230.01 348.35 229.33 345.80 228.76 343.26 C 227.53 332.13 219.66 321.16 209.33 316.64 C 198.49 310.99 185.49 315.60 176.32 322.32 M 334.97 362.96 C 321.32 374.21 310.34 392.03 314.60 410.35 C 316.41 416.20 319.76 421.83 325.19 424.97 C 329.95 430.07 338.11 431.77 344.97 432.00 C 345.37 434.62 355.68 433.28 356.01 432.03 C 371.12 431.60 385.49 424.48 396.91 415.03 C 401.10 413.02 403.51 408.05 406.96 404.92 C 412.35 398.96 417.13 391.17 418.03 383.03 C 420.48 381.11 419.24 371.19 418.01 370.17 L 417.59 369.47 C 418.06 358.65 407.04 350.58 397.71 347.31 C 375.91 340.74 352.09 348.88 334.97 362.96 M 617.31 372.33 C 601.30 381.31 587.80 396.00 583.04 414.02 C 581.63 421.99 584.06 432.58 592.37 435.80 C 595.74 438.54 600.71 440.43 605.00 439.42 C 605.99 441.08 608.96 441.02 609.99 439.40 C 625.40 438.46 640.49 431.24 651.90 420.96 C 655.70 418.14 658.98 414.68 662.08 411.10 C 667.81 405.19 673.16 396.59 674.10 388.01 C 676.82 380.76 673.10 367.36 663.66 364.40 C 648.18 358.10 631.03 364.50 617.31 372.33 M 447.63 466.54 C 430.22 473.29 413.19 485.12 406.09 503.06 C 401.78 511.94 404.28 523.97 413.16 528.99 C 415.86 531.93 420.78 532.90 424.76 533.43 C 429.16 534.55 433.78 533.76 438.27 533.64 C 451.95 531.92 465.94 525.90 475.96 516.64 C 477.66 516.88 479.86 514.69 479.68 512.99 C 481.23 512.62 482.65 511.28 482.95 509.69 C 484.28 510.25 486.27 508.36 485.73 507.02 C 490.85 503.43 494.64 494.51 495.08 487.79 C 496.86 487.32 496.89 482.68 495.06 482.28 L 494.70 481.52 C 496.08 476.04 491.32 471.60 487.81 468.18 C 475.95 460.24 460.53 462.74 447.63 466.54 M 520.96 563.92 C 502.69 569.25 483.77 579.27 475.12 597.09 C 471.61 604.09 471.92 614.55 480.27 617.85 C 482.10 619.42 484.62 620.44 487.02 620.51 C 488.33 621.62 489.67 621.65 491.02 620.58 C 492.89 621.25 495.10 621.25 496.98 620.58 C 498.32 621.65 499.65 621.62 500.98 620.50 C 514.20 618.67 526.83 612.63 536.90 604.03 C 540.53 602.78 542.17 598.49 545.06 596.10 C 549.63 591.72 553.75 583.91 552.68 577.42 C 553.60 561.53 531.69 560.94 520.96 563.92 M 263.01 576.03 C 249.41 582.00 236.40 592.31 232.11 607.08 C 230.72 614.62 232.90 625.44 241.33 627.76 C 244.52 631.50 250.39 631.42 254.76 632.47 C 259.18 633.48 263.78 632.80 268.27 632.63 C 283.09 631.02 297.71 624.92 308.81 614.86 C 312.04 615.22 314.26 611.58 314.89 608.83 C 318.27 604.91 321.79 600.40 322.09 595.02 C 324.97 591.00 321.83 581.84 318.33 577.66 C 303.10 564.15 280.03 568.25 263.01 576.03 Z" />
</g>
<g id="#0182a6ff">
<path fill="#0182a6" opacity="1.00" d=" M 189.96 47.93 C 274.70 62.03 359.20 77.74 443.89 92.23 C 475.45 98.33 507.36 102.71 538.76 109.52 C 539.36 110.74 540.56 111.41 541.72 112.05 C 542.65 112.97 543.55 114.02 543.96 115.29 C 544.17 116.76 545.52 117.42 546.68 118.07 C 547.97 119.29 549.35 120.58 549.96 122.30 C 550.16 123.77 551.52 124.42 552.70 125.04 C 553.65 125.96 554.54 127.01 554.96 128.30 C 555.17 129.76 556.53 130.42 557.70 131.06 C 560.51 134.37 563.77 137.51 565.94 141.31 C 566.19 142.75 567.53 143.42 568.69 144.06 C 571.61 147.30 574.52 150.62 577.10 154.15 C 577.70 155.32 578.61 156.27 579.66 157.05 C 580.62 157.96 581.56 159.00 581.97 160.29 C 582.16 161.77 583.52 162.42 584.70 163.04 C 585.65 163.96 586.55 165.01 586.96 166.29 C 587.17 167.76 588.52 168.42 589.68 169.07 C 590.99 170.26 592.21 171.59 593.12 173.13 C 593.68 174.32 594.60 175.27 595.66 176.05 C 596.62 176.96 597.55 178.00 597.97 179.29 C 598.16 180.77 599.52 181.42 600.70 182.04 C 601.65 182.96 602.55 184.01 602.96 185.29 C 603.17 186.76 604.52 187.42 605.68 188.07 C 606.97 189.29 608.35 190.58 608.96 192.30 C 609.16 193.76 610.52 194.42 611.70 195.04 C 612.65 195.96 613.55 197.01 613.96 198.29 C 614.16 199.77 615.52 200.42 616.70 201.04 C 617.71 201.95 618.48 203.10 619.01 204.35 C 619.52 206.12 621.31 206.92 622.67 207.97 C 623.61 208.92 624.54 209.99 624.96 211.30 C 625.16 212.77 626.52 213.42 627.70 214.04 C 628.65 214.96 629.55 216.01 629.96 217.29 C 630.16 218.77 631.52 219.42 632.70 220.04 C 633.65 220.96 634.55 222.01 634.96 223.29 C 635.16 224.76 636.52 225.42 637.68 226.07 C 638.97 227.29 640.35 228.58 640.96 230.30 C 641.16 231.76 642.52 232.42 643.70 233.04 C 644.65 233.96 645.54 235.01 645.96 236.29 C 646.17 237.76 647.52 238.42 648.68 239.07 C 649.99 240.26 651.21 241.59 652.12 243.13 C 652.68 244.32 653.60 245.27 654.66 246.05 C 655.62 246.96 656.55 248.00 656.97 249.29 C 657.15 250.77 658.52 251.42 659.70 252.04 C 660.65 252.96 661.54 254.01 661.96 255.29 C 662.17 256.76 663.52 257.42 664.68 258.07 C 665.99 259.26 667.21 260.59 668.12 262.13 C 668.68 263.32 669.60 264.27 670.66 265.05 C 671.62 265.96 672.55 267.00 672.97 268.29 C 673.16 269.76 674.52 270.42 675.69 271.06 C 678.60 274.30 681.52 277.62 684.10 281.15 C 684.70 282.31 685.60 283.27 686.66 284.05 C 687.62 284.96 688.55 286.00 688.97 287.29 C 689.15 288.77 690.52 289.42 691.70 290.04 C 692.65 290.96 693.54 292.01 693.96 293.29 C 694.16 294.76 695.52 295.42 696.68 296.07 C 697.96 297.29 699.35 298.58 699.96 300.30 C 700.16 301.76 701.52 302.42 702.70 303.04 C 703.65 303.96 704.55 305.01 704.96 306.29 C 705.16 307.77 706.52 308.42 707.70 309.04 C 708.65 309.95 709.54 311.01 709.96 312.29 C 710.16 313.76 711.52 314.42 712.68 315.07 C 713.96 316.29 715.34 317.58 715.96 319.30 C 716.16 320.76 717.52 321.42 718.70 322.04 C 719.65 322.96 720.55 324.01 720.96 325.29 C 721.16 326.77 722.52 327.42 723.70 328.04 C 724.65 328.95 725.54 330.01 725.96 331.29 C 726.16 332.76 727.52 333.42 728.68 334.07 C 729.97 335.29 731.35 336.58 731.96 338.30 C 732.16 339.77 733.53 340.43 734.72 341.04 C 734.63 341.41 734.45 342.15 734.36 342.53 C 731.01 340.23 726.68 340.80 722.87 340.22 C 589.69 329.46 456.52 318.52 323.35 307.70 C 314.46 294.72 308.78 279.69 300.98 266.01 C 263.77 193.43 226.55 120.84 189.96 47.93 M 240.96 93.96 C 236.30 104.78 245.01 114.27 253.21 119.87 C 264.11 127.71 277.78 132.59 291.20 132.93 C 291.48 135.21 295.54 134.78 296.89 133.53 C 298.60 133.99 300.39 133.99 302.11 133.52 C 303.45 134.80 307.52 135.21 307.80 132.93 C 317.87 132.41 331.72 128.55 333.27 116.88 C 335.57 116.10 332.65 109.75 331.87 107.10 C 320.83 88.97 298.33 82.50 278.41 80.34 C 265.27 80.53 248.09 80.80 240.96 93.96 M 398.23 178.17 C 394.73 189.46 403.97 200.76 413.34 205.77 C 423.76 213.48 437.18 218.15 450.17 218.99 C 450.00 220.83 453.15 220.68 453.99 219.54 C 457.54 220.42 461.47 220.19 465.03 219.55 C 465.84 220.67 468.99 220.83 468.83 218.99 C 479.30 219.00 493.61 212.14 492.76 200.28 C 493.56 194.64 489.73 189.66 486.72 185.25 C 473.56 171.48 454.19 165.05 435.62 163.40 C 422.14 162.96 404.76 164.23 398.23 178.17 M 588.37 259.41 C 580.25 261.15 571.70 265.69 569.02 274.09 C 566.86 286.09 575.52 297.30 585.39 302.75 C 597.51 312.36 613.57 317.56 628.98 318.01 C 629.53 319.77 638.34 319.85 638.01 318.02 C 644.94 317.82 653.77 316.92 658.80 311.50 C 660.61 312.09 663.09 309.62 662.50 307.80 C 665.85 305.66 667.19 300.97 665.75 297.28 C 666.08 283.94 652.62 274.92 642.34 268.63 C 625.86 260.29 606.79 255.02 588.37 259.41 Z" />
<path fill="#0182a6" opacity="1.00" d=" M 184.22 414.07 C 186.07 413.94 187.93 413.94 189.78 414.07 C 189.28 415.86 184.71 415.86 184.22 414.07 Z" />
<path fill="#0182a6" opacity="1.00" d=" M 344.97 432.00 C 348.66 432.01 352.31 431.98 356.01 432.03 C 355.68 433.28 345.37 434.62 344.97 432.00 Z" />
<path fill="#0182a6" opacity="1.00" d=" M 308.81 614.86 C 310.81 612.82 312.85 610.82 314.89 608.83 C 314.26 611.58 312.04 615.22 308.81 614.86 Z" />
<path fill="#0182a6" opacity="1.00" d=" M 538.99 644.56 C 540.19 643.63 541.83 643.63 543.03 644.57 C 541.67 645.63 540.32 645.62 538.99 644.56 Z" />
<path fill="#0182a6" opacity="1.00" d=" M 522.04 645.52 C 523.62 644.91 525.32 644.81 527.00 644.98 L 527.02 645.45 C 525.71 646.66 523.39 646.61 522.04 645.52 Z" />
<path fill="#0182a6" opacity="1.00" d=" M 505.04 646.52 C 506.62 645.91 508.32 645.81 510.00 645.98 L 510.02 646.45 C 508.70 647.66 506.39 647.61 505.04 646.52 Z" />
<path fill="#0182a6" opacity="1.00" d=" M 488.04 647.54 C 489.23 646.99 490.55 646.79 491.86 646.97 L 491.89 647.69 C 490.58 648.64 489.29 648.59 488.04 647.54 Z" />
<path fill="#0182a6" opacity="1.00" d=" M 453.04 649.52 C 454.62 648.91 456.32 648.81 458.00 648.98 L 458.02 649.45 C 456.71 650.66 454.39 650.61 453.04 649.52 Z" />
<path fill="#0182a6" opacity="1.00" d=" M 436.04 650.52 C 437.63 649.91 439.34 649.83 441.02 650.00 L 441.03 650.47 C 439.70 651.66 437.39 651.61 436.04 650.52 Z" />
<path fill="#0182a6" opacity="1.00" d=" M 384.04 653.52 C 385.62 652.91 387.32 652.81 389.00 652.98 L 389.02 653.45 C 387.71 654.66 385.39 654.61 384.04 653.52 Z" />
<path fill="#0182a6" opacity="1.00" d=" M 366.11 654.51 C 367.60 654.37 370.56 654.09 372.05 653.96 L 372.05 654.43 C 370.52 655.88 367.68 655.86 366.11 654.51 Z" />
<path fill="#0182a6" opacity="1.00" d=" M 315.04 657.52 C 316.62 656.90 318.32 656.81 320.00 656.98 L 320.02 657.45 C 318.71 658.66 316.39 658.61 315.04 657.52 Z" />
<path fill="#0182a6" opacity="1.00" d=" M 281.04 659.54 C 282.23 658.99 283.55 658.79 284.86 658.97 L 284.89 659.69 C 283.58 660.64 282.30 660.59 281.04 659.54 Z" />
<path fill="#0182a6" opacity="1.00" d=" M 246.04 661.52 C 247.62 660.91 249.32 660.81 251.00 660.98 L 251.02 661.45 C 249.71 662.66 247.39 662.61 246.04 661.52 Z" />
<path fill="#0182a6" opacity="1.00" d=" M 229.04 662.52 C 230.63 661.91 232.34 661.83 234.02 662.00 L 234.03 662.47 C 232.71 663.66 230.40 663.61 229.04 662.52 Z" />
<path fill="#0182a6" opacity="1.00" d=" M 212.04 663.54 C 213.23 662.99 214.55 662.79 215.86 662.97 L 215.89 663.69 C 214.58 664.64 213.30 664.59 212.04 663.54 Z" />
<path fill="#0182a6" opacity="1.00" d=" M 178.27 665.03 C 179.84 664.95 181.40 664.95 182.97 665.03 L 182.99 665.46 C 181.88 666.50 178.49 666.90 178.27 665.03 Z" />
</g>
<g id="#abb1b3ff">
<path fill="#abb1b3" opacity="1.00" d=" M 240.96 93.96 C 248.09 80.80 265.27 80.53 278.41 80.34 C 298.33 82.50 320.83 88.97 331.87 107.10 C 332.65 109.75 335.57 116.10 333.27 116.88 C 330.04 103.43 316.44 95.39 304.32 90.66 C 287.98 85.05 269.10 82.18 252.95 89.94 C 246.63 92.50 242.58 98.98 244.07 105.87 C 246.21 111.07 250.18 115.20 253.21 119.87 C 245.01 114.27 236.30 104.78 240.96 93.96 Z" />
<path fill="#abb1b3" opacity="1.00" d=" M 538.76 109.52 C 540.16 108.40 542.99 110.38 541.72 112.05 C 540.56 111.41 539.36 110.74 538.76 109.52 Z" />
<path fill="#abb1b3" opacity="1.00" d=" M 543.96 115.29 C 545.40 114.48 547.87 116.53 546.68 118.07 C 545.52 117.42 544.17 116.76 543.96 115.29 Z" />
<path fill="#abb1b3" opacity="1.00" d=" M 549.96 122.30 C 551.38 121.49 553.87 123.50 552.70 125.04 C 551.52 124.42 550.16 123.77 549.96 122.30 Z" />
<path fill="#abb1b3" opacity="1.00" d=" M 554.96 128.30 C 556.40 127.49 558.87 129.52 557.70 131.06 C 556.53 130.42 555.17 129.76 554.96 128.30 Z" />
<path fill="#abb1b3" opacity="1.00" d=" M 291.20 132.93 C 292.62 133.08 295.47 133.38 296.89 133.53 C 295.54 134.78 291.48 135.21 291.20 132.93 Z" />
<path fill="#abb1b3" opacity="1.00" d=" M 302.11 133.52 C 303.53 133.37 306.38 133.08 307.80 132.93 C 307.52 135.21 303.45 134.80 302.11 133.52 Z" />
<path fill="#abb1b3" opacity="1.00" d=" M 565.94 141.31 C 567.38 140.48 569.89 142.51 568.69 144.06 C 567.53 143.42 566.19 142.75 565.94 141.31 Z" />
<path fill="#abb1b3" opacity="1.00" d=" M 577.10 154.15 C 578.71 152.91 581.03 155.57 579.66 157.05 C 578.61 156.27 577.70 155.32 577.10 154.15 Z" />
<path fill="#abb1b3" opacity="1.00" d=" M 581.97 160.29 C 583.39 159.49 585.87 161.50 584.70 163.04 C 583.52 162.42 582.16 161.77 581.97 160.29 Z" />
<path fill="#abb1b3" opacity="1.00" d=" M 398.23 178.17 C 404.76 164.23 422.14 162.96 435.62 163.40 C 454.19 165.05 473.56 171.48 486.72 185.25 C 489.73 189.66 493.56 194.64 492.76 200.28 C 485.70 184.23 469.30 175.24 452.99 171.08 C 439.66 168.00 425.01 166.32 412.19 172.22 C 407.28 174.98 400.63 179.21 401.99 186.00 C 401.30 194.35 409.09 199.55 413.34 205.77 C 403.97 200.76 394.73 189.46 398.23 178.17 Z" />
<path fill="#abb1b3" opacity="1.00" d=" M 586.96 166.29 C 588.40 165.48 590.87 167.53 589.68 169.07 C 588.52 168.42 587.17 167.76 586.96 166.29 Z" />
<path fill="#abb1b3" opacity="1.00" d=" M 593.12 173.13 C 594.74 171.92 597.01 174.58 595.66 176.05 C 594.60 175.27 593.68 174.32 593.12 173.13 Z" />
<path fill="#abb1b3" opacity="1.00" d=" M 597.97 179.29 C 599.39 178.49 601.87 180.50 600.70 182.04 C 599.52 181.42 598.16 180.77 597.97 179.29 Z" />
<path fill="#abb1b3" opacity="1.00" d=" M 602.96 185.29 C 604.40 184.48 606.87 186.53 605.68 188.07 C 604.52 187.42 603.17 186.76 602.96 185.29 Z" />
<path fill="#abb1b3" opacity="1.00" d=" M 608.96 192.30 C 610.38 191.49 612.87 193.50 611.70 195.04 C 610.52 194.42 609.16 193.76 608.96 192.30 Z" />
<path fill="#abb1b3" opacity="1.00" d=" M 613.96 198.29 C 615.39 197.49 617.87 199.50 616.70 201.04 C 615.52 200.42 614.16 199.77 613.96 198.29 Z" />
<path fill="#abb1b3" opacity="1.00" d=" M 619.01 204.35 C 620.85 203.81 623.83 205.89 622.67 207.97 C 621.31 206.92 619.52 206.12 619.01 204.35 Z" />
<path fill="#abb1b3" opacity="1.00" d=" M 624.96 211.30 C 626.39 210.49 628.87 212.50 627.70 214.04 C 626.52 213.42 625.16 212.77 624.96 211.30 Z" />
<path fill="#abb1b3" opacity="1.00" d=" M 629.96 217.29 C 631.39 216.49 633.87 218.50 632.70 220.04 C 631.52 219.42 630.16 218.77 629.96 217.29 Z" />
<path fill="#abb1b3" opacity="1.00" d=" M 450.17 218.99 C 451.46 218.80 452.80 218.94 453.99 219.54 C 453.15 220.68 450.00 220.83 450.17 218.99 Z" />
<path fill="#abb1b3" opacity="1.00" d=" M 465.03 219.55 C 466.19 218.93 467.52 218.78 468.83 218.99 C 468.99 220.83 465.84 220.67 465.03 219.55 Z" />
<path fill="#abb1b3" opacity="1.00" d=" M 634.96 223.29 C 636.40 222.48 638.87 224.53 637.68 226.07 C 636.52 225.42 635.16 224.76 634.96 223.29 Z" />
<path fill="#abb1b3" opacity="1.00" d=" M 640.96 230.30 C 642.38 229.49 644.87 231.50 643.70 233.04 C 642.52 232.42 641.16 231.76 640.96 230.30 Z" />
<path fill="#abb1b3" opacity="1.00" d=" M 645.96 236.29 C 647.40 235.48 649.87 237.53 648.68 239.07 C 647.52 238.42 646.17 237.76 645.96 236.29 Z" />
<path fill="#abb1b3" opacity="1.00" d=" M 652.12 243.13 C 653.74 241.92 656.01 244.58 654.66 246.05 C 653.60 245.27 652.68 244.32 652.12 243.13 Z" />
<path fill="#abb1b3" opacity="1.00" d=" M 656.97 249.29 C 658.39 248.49 660.87 250.50 659.70 252.04 C 658.52 251.42 657.15 250.77 656.97 249.29 Z" />
<path fill="#abb1b3" opacity="1.00" d=" M 661.96 255.29 C 663.40 254.48 665.87 256.53 664.68 258.07 C 663.52 257.42 662.17 256.76 661.96 255.29 Z" />
<path fill="#abb1b3" opacity="1.00" d=" M 588.37 259.41 C 606.79 255.02 625.86 260.29 642.34 268.63 C 652.62 274.92 666.08 283.94 665.75 297.28 C 659.53 284.22 647.97 274.33 634.38 269.54 C 618.28 263.40 599.31 258.97 582.96 266.94 C 575.54 270.09 570.22 279.32 573.97 287.03 C 576.24 293.28 581.75 297.38 585.39 302.75 C 575.52 297.30 566.86 286.09 569.02 274.09 C 571.70 265.69 580.25 261.15 588.37 259.41 Z" />
<path fill="#abb1b3" opacity="1.00" d=" M 668.12 262.13 C 669.74 260.92 672.01 263.58 670.66 265.05 C 669.60 264.27 668.68 263.32 668.12 262.13 Z" />
<path fill="#abb1b3" opacity="1.00" d=" M 672.97 268.29 C 674.40 267.49 676.87 269.52 675.69 271.06 C 674.52 270.42 673.16 269.76 672.97 268.29 Z" />
<path fill="#abb1b3" opacity="1.00" d=" M 684.10 281.15 C 685.71 279.91 688.03 282.57 686.66 284.05 C 685.60 283.27 684.70 282.31 684.10 281.15 Z" />
<path fill="#abb1b3" opacity="1.00" d=" M 688.97 287.29 C 690.39 286.49 692.87 288.50 691.70 290.04 C 690.52 289.42 689.15 288.77 688.97 287.29 Z" />
<path fill="#abb1b3" opacity="1.00" d=" M 693.96 293.29 C 695.40 292.48 697.87 294.53 696.68 296.07 C 695.52 295.42 694.16 294.76 693.96 293.29 Z" />
<path fill="#abb1b3" opacity="1.00" d=" M 699.96 300.30 C 701.38 299.48 703.87 301.50 702.70 303.04 C 701.52 302.42 700.16 301.76 699.96 300.30 Z" />
<path fill="#abb1b3" opacity="1.00" d=" M 704.96 306.29 C 706.39 305.49 708.87 307.50 707.70 309.04 C 706.52 308.42 705.16 307.77 704.96 306.29 Z" />
<path fill="#abb1b3" opacity="1.00" d=" M 658.80 311.50 C 659.40 309.73 660.73 308.40 662.50 307.80 C 663.09 309.62 660.61 312.09 658.80 311.50 Z" />
<path fill="#abb1b3" opacity="1.00" d=" M 709.96 312.29 C 711.40 311.48 713.87 313.53 712.68 315.07 C 711.52 314.42 710.16 313.76 709.96 312.29 Z" />
<path fill="#abb1b3" opacity="1.00" d=" M 176.32 322.32 C 185.49 315.60 198.49 310.99 209.33 316.64 C 219.66 321.16 227.53 332.13 228.76 343.26 C 223.26 333.95 217.33 322.74 205.92 320.06 C 190.50 316.16 175.76 327.56 168.10 340.06 C 154.69 360.42 154.97 388.04 169.13 407.97 C 157.12 399.21 153.95 383.01 154.01 368.99 C 155.35 351.46 162.55 333.72 176.32 322.32 Z" />
<path fill="#abb1b3" opacity="1.00" d=" M 628.98 318.01 C 631.99 317.98 634.94 317.97 638.01 318.02 C 638.34 319.85 629.53 319.77 628.98 318.01 Z" />
<path fill="#abb1b3" opacity="1.00" d=" M 715.96 319.30 C 717.38 318.48 719.87 320.50 718.70 322.04 C 717.52 321.42 716.16 320.76 715.96 319.30 Z" />
<path fill="#abb1b3" opacity="1.00" d=" M 720.96 325.29 C 722.39 324.49 724.87 326.50 723.70 328.04 C 722.52 327.42 721.16 326.77 720.96 325.29 Z" />
<path fill="#abb1b3" opacity="1.00" d=" M 725.96 331.29 C 727.40 330.48 729.87 332.53 728.68 334.07 C 727.52 333.42 726.16 332.76 725.96 331.29 Z" />
<path fill="#abb1b3" opacity="1.00" d=" M 731.96 338.30 C 733.37 337.51 735.88 339.48 734.72 341.04 C 733.53 340.43 732.16 339.77 731.96 338.30 Z" />
<path fill="#abb1b3" opacity="1.00" d=" M 334.97 362.96 C 352.09 348.88 375.91 340.74 397.71 347.31 C 407.04 350.58 418.06 358.65 417.59 369.47 C 412.97 362.56 407.74 355.09 399.40 352.52 C 379.16 345.46 356.99 353.11 340.61 365.58 C 327.58 375.53 316.52 390.86 317.94 408.01 C 318.24 414.40 323.59 418.98 325.19 424.97 C 319.76 421.83 316.41 416.20 314.60 410.35 C 310.34 392.03 321.32 374.21 334.97 362.96 Z" />
<path fill="#abb1b3" opacity="1.00" d=" M 230.01 350.98 C 231.38 352.65 232.45 362.04 230.01 364.03 C 229.99 359.67 230.00 355.32 230.01 350.98 Z" />
<path fill="#abb1b3" opacity="1.00" d=" M 617.31 372.33 C 631.03 364.50 648.18 358.10 663.66 364.40 C 673.10 367.36 676.82 380.76 674.10 388.01 C 676.45 378.63 668.27 370.45 660.02 367.97 C 644.32 364.22 628.53 371.19 615.60 379.56 C 602.31 389.22 589.65 402.22 587.04 419.11 C 585.45 425.46 590.33 430.28 592.37 435.80 C 584.06 432.58 581.63 421.99 583.04 414.02 C 587.80 396.00 601.30 381.31 617.31 372.33 Z" />
<path fill="#abb1b3" opacity="1.00" d=" M 418.01 370.17 C 419.24 371.19 420.48 381.11 418.03 383.03 C 418.00 378.74 418.00 374.44 418.01 370.17 Z" />
<path fill="#abb1b3" opacity="1.00" d=" M 209.90 405.02 C 211.07 402.86 212.25 400.26 215.03 399.97 C 213.44 401.73 212.54 404.75 209.90 405.02 Z" />
<path fill="#abb1b3" opacity="1.00" d=" M 396.91 415.03 C 399.03 410.63 402.81 407.36 406.96 404.92 C 403.51 408.05 401.10 413.02 396.91 415.03 Z" />
<path fill="#abb1b3" opacity="1.00" d=" M 651.90 420.96 C 654.41 416.96 657.44 412.74 662.08 411.10 C 658.98 414.68 655.70 418.14 651.90 420.96 Z" />
<path fill="#abb1b3" opacity="1.00" d=" M 605.00 439.42 C 606.25 439.42 608.74 439.40 609.99 439.40 C 608.96 441.02 605.99 441.08 605.00 439.42 Z" />
<path fill="#abb1b3" opacity="1.00" d=" M 447.63 466.54 C 460.53 462.74 475.95 460.24 487.81 468.18 C 491.32 471.60 496.08 476.04 494.70 481.52 C 488.20 470.42 474.90 465.60 462.40 468.45 C 440.43 472.16 418.31 485.58 409.83 506.86 C 406.69 514.73 410.01 522.00 413.16 528.99 C 404.28 523.97 401.78 511.94 406.09 503.06 C 413.19 485.12 430.22 473.29 447.63 466.54 Z" />
<path fill="#abb1b3" opacity="1.00" d=" M 495.06 482.28 C 496.89 482.68 496.86 487.32 495.08 487.79 C 494.95 485.95 494.96 484.11 495.06 482.28 Z" />
<path fill="#abb1b3" opacity="1.00" d=" M 482.95 509.69 C 482.99 508.17 484.14 506.87 485.73 507.02 C 486.27 508.36 484.28 510.25 482.95 509.69 Z" />
<path fill="#abb1b3" opacity="1.00" d=" M 475.96 516.64 C 476.23 514.70 477.69 513.17 479.68 512.99 C 479.86 514.69 477.66 516.88 475.96 516.64 Z" />
<path fill="#abb1b3" opacity="1.00" d=" M 424.76 533.43 C 429.24 532.89 433.76 533.26 438.27 533.64 C 433.78 533.76 429.16 534.55 424.76 533.43 Z" />
<path fill="#abb1b3" opacity="1.00" d=" M 520.96 563.92 C 531.69 560.94 553.60 561.53 552.68 577.42 C 549.40 573.49 546.02 569.20 540.60 568.40 C 516.37 565.53 490.37 579.51 479.06 601.00 C 475.47 606.53 478.16 612.42 480.27 617.85 C 471.92 614.55 471.61 604.09 475.12 597.09 C 483.77 579.27 502.69 569.25 520.96 563.92 Z" />
<path fill="#abb1b3" opacity="1.00" d=" M 263.01 576.03 C 280.03 568.25 303.10 564.15 318.33 577.66 C 321.83 581.84 324.97 591.00 322.09 595.02 C 323.98 588.30 318.65 583.64 314.73 579.28 C 300.11 570.40 281.90 573.72 267.03 580.07 C 254.02 585.37 241.66 595.21 236.60 608.64 C 233.78 615.82 237.91 621.96 241.33 627.76 C 232.90 625.44 230.72 614.62 232.11 607.08 C 236.40 592.31 249.41 582.00 263.01 576.03 Z" />
<path fill="#abb1b3" opacity="1.00" d=" M 536.90 604.03 C 538.65 600.60 541.23 597.27 545.06 596.10 C 542.17 598.49 540.53 602.78 536.90 604.03 Z" />
<path fill="#abb1b3" opacity="1.00" d=" M 487.02 620.51 C 488.23 619.65 489.85 619.61 491.02 620.58 C 489.67 621.65 488.33 621.62 487.02 620.51 Z" />
<path fill="#abb1b3" opacity="1.00" d=" M 496.98 620.58 C 498.14 619.61 499.75 619.65 500.98 620.50 C 499.65 621.62 498.32 621.65 496.98 620.58 Z" />
<path fill="#abb1b3" opacity="1.00" d=" M 254.76 632.47 C 259.24 631.82 263.77 632.29 268.27 632.63 C 263.78 632.80 259.18 633.48 254.76 632.47 Z" />
<path fill="#abb1b3" opacity="1.00" d=" M 527.00 644.98 C 528.69 645.01 532.08 645.07 533.77 645.09 C 532.70 646.97 528.80 646.49 527.02 645.45 L 527.00 644.98 Z" />
<path fill="#abb1b3" opacity="1.00" d=" M 510.00 645.98 C 511.69 646.01 515.08 646.07 516.77 646.10 C 515.70 647.97 511.80 647.49 510.02 646.45 L 510.00 645.98 Z" />
<path fill="#abb1b3" opacity="1.00" d=" M 491.86 646.97 C 494.56 646.98 497.28 647.00 500.01 647.04 C 499.01 649.24 494.30 647.62 491.89 647.69 L 491.86 646.97 Z" />
<path fill="#abb1b3" opacity="1.00" d=" M 473.69 648.56 C 476.76 648.02 479.84 648.00 482.98 648.02 C 482.88 651.24 476.12 648.30 473.69 648.56 Z" />
<path fill="#abb1b3" opacity="1.00" d=" M 458.00 648.98 C 459.69 649.01 463.08 649.06 464.77 649.08 C 463.70 650.97 459.80 650.48 458.02 649.45 L 458.00 648.98 Z" />
<path fill="#abb1b3" opacity="1.00" d=" M 441.02 650.00 C 442.94 649.94 444.86 649.96 446.78 650.09 C 446.02 651.90 442.50 651.47 441.03 650.47 L 441.02 650.00 Z" />
<path fill="#abb1b3" opacity="1.00" d=" M 422.69 651.56 C 425.76 651.04 428.85 651.02 431.99 651.00 C 431.86 654.25 425.13 651.30 422.69 651.56 Z" />
<path fill="#abb1b3" opacity="1.00" d=" M 404.69 652.56 C 407.76 652.01 410.85 651.99 413.99 652.01 C 413.85 655.24 407.13 652.31 404.69 652.56 Z" />
<path fill="#abb1b3" opacity="1.00" d=" M 389.00 652.98 C 390.69 653.01 394.08 653.06 395.77 653.08 C 394.70 654.97 390.80 654.48 389.02 653.45 L 389.00 652.98 Z" />
<path fill="#abb1b3" opacity="1.00" d=" M 372.05 653.96 C 373.95 653.89 375.86 653.96 377.78 654.10 C 377.02 655.89 373.50 655.45 372.05 654.43 L 372.05 653.96 Z" />
<path fill="#abb1b3" opacity="1.00" d=" M 353.69 655.57 C 356.77 655.07 359.87 655.01 363.01 654.93 C 362.87 658.27 356.15 655.30 353.69 655.57 Z" />
<path fill="#abb1b3" opacity="1.00" d=" M 335.69 656.56 C 338.76 656.01 341.85 655.99 344.99 656.01 C 344.86 659.24 338.13 656.31 335.69 656.56 Z" />
<path fill="#abb1b3" opacity="1.00" d=" M 320.00 656.98 C 321.69 657.01 325.08 657.06 326.77 657.08 C 325.70 658.97 321.80 658.48 320.02 657.45 L 320.00 656.98 Z" />
<path fill="#abb1b3" opacity="1.00" d=" M 303.11 658.48 C 304.53 658.35 307.37 658.09 308.80 657.95 C 308.51 660.22 304.43 659.76 303.11 658.48 Z" />
<path fill="#abb1b3" opacity="1.00" d=" M 284.86 658.97 C 287.91 659.01 290.93 658.95 294.00 659.04 C 293.90 662.21 287.30 659.40 284.89 659.69 L 284.86 658.97 Z" />
<path fill="#abb1b3" opacity="1.00" d=" M 266.69 660.56 C 269.76 660.02 272.85 660.00 275.98 660.02 C 275.89 663.24 269.11 660.31 266.69 660.56 Z" />
<path fill="#abb1b3" opacity="1.00" d=" M 251.00 660.98 C 252.69 661.01 256.08 661.06 257.77 661.08 C 256.70 662.97 252.80 662.48 251.02 661.45 L 251.00 660.98 Z" />
<path fill="#abb1b3" opacity="1.00" d=" M 234.02 662.00 C 235.94 661.94 237.86 661.96 239.78 662.09 C 239.03 663.90 235.50 663.47 234.03 662.47 L 234.02 662.00 Z" />
<path fill="#abb1b3" opacity="1.00" d=" M 215.86 662.97 C 218.57 662.98 221.29 663.00 224.01 663.04 C 223.01 665.24 218.30 663.62 215.89 663.69 L 215.86 662.97 Z" />
<path fill="#abb1b3" opacity="1.00" d=" M 197.69 664.57 C 200.75 664.02 203.86 664.00 206.98 664.02 C 206.90 667.24 200.11 664.30 197.69 664.57 Z" />
<path fill="#abb1b3" opacity="1.00" d=" M 182.97 665.03 C 184.67 665.04 188.08 665.06 189.78 665.08 C 188.72 667.01 184.80 666.48 182.99 665.46 L 182.97 665.03 Z" />
</g>
</svg>
